<svg width="771" height="790" viewBox="0 0 771 790" fill="none" xmlns="http://www.w3.org/2000/svg">
<path d="M0.5 10C0.5 4.47716 4.97715 0 10.5 0H490.5C496.023 0 500.5 4.47715 500.5 10V240C500.5 245.523 496.023 250 490.5 250H10.5C4.97714 250 0.5 245.523 0.5 240V10Z" fill="#8C8CF9"/>
<path d="M0.5 10C0.5 4.47716 4.97715 0 10.5 0H490.5C496.023 0 500.5 4.47715 500.5 10V240C500.5 245.523 496.023 250 490.5 250H10.5C4.97714 250 0.5 245.523 0.5 240V10Z" fill="#8C8CF9"/>
<path d="M271 280C271 274.477 275.477 270 281 270H761C766.523 270 771 274.477 771 280V510C771 515.523 766.523 520 761 520H281C275.477 520 271 515.523 271 510V280Z" fill="#8C8CF9"/>
<path d="M271 280C271 274.477 275.477 270 281 270H761C766.523 270 771 274.477 771 280V510C771 515.523 766.523 520 761 520H281C275.477 520 271 515.523 271 510V280Z" fill="#8C8CF9"/>
<path d="M521 10C521 4.47716 525.477 0 531 0H761C766.523 0 771 4.47715 771 10V240C771 245.523 766.523 250 761 250H531C525.477 250 521 245.523 521 240V10Z" fill="#F5C62C"/>
<path d="M521 10C521 4.47716 525.477 0 531 0H761C766.523 0 771 4.47715 771 10V240C771 245.523 766.523 250 761 250H531C525.477 250 521 245.523 521 240V10Z" fill="#F5C62C"/>
<path d="M0 280C0 274.477 4.47715 270 10 270H240C245.523 270 250 274.477 250 280V780C250 785.523 245.523 790 240 790H10C4.47716 790 0 785.523 0 780V280Z" fill="#8C8CF9"/>
<path d="M0 280C0 274.477 4.47715 270 10 270H240C245.523 270 250 274.477 250 280V780C250 785.523 245.523 790 240 790H10C4.47716 790 0 785.523 0 780V280Z" fill="#8C8CF9"/>
<path d="M271 550C271 544.477 275.477 540 281 540H761C766.523 540 771 544.477 771 550V780C771 785.523 766.523 790 761 790H281C275.477 790 271 785.523 271 780V550Z" fill="#8C8CF9"/>
<path d="M271 550C271 544.477 275.477 540 281 540H761C766.523 540 771 544.477 771 550V780C771 785.523 766.523 790 761 790H281C275.477 790 271 785.523 271 780V550Z" fill="#8C8CF9"/>
</svg>
