<svg width="901" height="906" viewBox="0 0 901 906" fill="none" xmlns="http://www.w3.org/2000/svg">
<g clip-path="url(#clip0)">
<g filter="url(#filter0_d)">
<path d="M757.264 397.271L369.244 9.38436C364.06 4.20152 355.654 4.20152 350.469 9.38436L118.909 240.865C113.724 246.048 113.724 254.451 118.909 259.634L506.929 647.521C512.113 652.703 520.519 652.703 525.704 647.521L757.264 416.04C762.448 410.857 762.448 402.454 757.264 397.271Z" fill="black"/>
</g>
<g filter="url(#filter1_d)">
<path d="M615.825 506.13L578.275 468.592C574.818 465.137 569.214 465.137 565.758 468.592L540.725 493.617C537.268 497.072 537.268 502.674 540.725 506.13L578.275 543.667C581.731 547.122 587.335 547.122 590.792 543.667L615.825 518.642C619.282 515.187 619.282 509.585 615.825 506.13Z" fill="#DCDCDC"/>
</g>
<path d="M184.059 211.836C185.478 210.419 186.812 209.751 188.065 209.835C189.316 209.918 190.432 210.449 191.413 211.43C192.393 212.41 192.925 213.526 193.009 214.777C193.092 216.028 192.425 217.362 191.006 218.78C189.629 220.157 188.305 220.814 187.032 220.752C185.759 220.689 184.632 220.168 183.653 219.187C182.672 218.207 182.15 217.081 182.088 215.808C182.025 214.537 182.682 213.213 184.059 211.836ZM195.824 223.597C197.243 222.179 198.578 221.512 199.829 221.595C201.081 221.679 202.198 222.211 203.177 223.191C204.158 224.17 204.69 225.286 204.774 226.538C204.857 227.789 204.19 229.123 202.771 230.542C201.394 231.918 200.069 232.575 198.797 232.512C197.524 232.45 196.398 231.928 195.417 230.949C194.436 229.968 193.915 228.842 193.853 227.57C193.79 226.297 194.447 224.974 195.824 223.597ZM207.589 235.358C209.007 233.94 210.343 233.273 211.594 233.356C212.846 233.439 213.962 233.971 214.942 234.951C215.923 235.932 216.455 237.047 216.538 238.298C216.622 239.55 215.954 240.885 214.536 242.303C213.159 243.679 211.834 244.336 210.561 244.273C209.29 244.21 208.163 243.689 207.182 242.709C206.202 241.729 205.68 240.603 205.617 239.331C205.555 238.059 206.212 236.735 207.589 235.358ZM219.354 247.119C220.772 245.701 222.108 245.034 223.359 245.117C224.611 245.2 225.727 245.732 226.708 246.712C227.688 247.693 228.22 248.808 228.304 250.06C228.387 251.311 227.719 252.646 226.301 254.064C224.924 255.44 223.599 256.097 222.327 256.034C221.054 255.972 219.928 255.45 218.947 254.47C217.967 253.49 217.445 252.364 217.383 251.092C217.32 249.82 217.977 248.495 219.354 247.119ZM238.576 266.334C239.994 264.916 241.329 264.249 242.581 264.332C243.832 264.416 244.948 264.948 245.929 265.927C246.909 266.907 247.441 268.023 247.525 269.274C247.609 270.526 246.94 271.86 245.523 273.278C244.145 274.655 242.82 275.312 241.549 275.249C240.276 275.187 239.149 274.665 238.168 273.685C237.188 272.705 236.667 271.579 236.604 270.307C236.542 269.034 237.198 267.711 238.576 266.334ZM250.341 278.095C251.759 276.677 253.094 276.01 254.346 276.093C255.597 276.176 256.713 276.708 257.694 277.688C258.675 278.668 259.207 279.784 259.29 281.035C259.373 282.286 258.706 283.621 257.287 285.04C255.911 286.415 254.586 287.073 253.313 287.01C252.041 286.947 250.914 286.426 249.934 285.446C248.953 284.465 248.432 283.34 248.369 282.068C248.306 280.795 248.964 279.471 250.341 278.095ZM262.105 289.856C263.524 288.438 264.859 287.771 266.111 287.854C267.362 287.937 268.479 288.469 269.459 289.449C270.44 290.43 270.972 291.545 271.055 292.796C271.138 294.047 270.471 295.383 269.052 296.8C267.676 298.177 266.351 298.834 265.078 298.771C263.805 298.708 262.68 298.187 261.699 297.207C260.718 296.227 260.197 295.1 260.134 293.829C260.071 292.557 260.729 291.232 262.105 289.856ZM273.87 301.617C275.289 300.199 276.624 299.531 277.876 299.615C279.128 299.698 280.244 300.23 281.224 301.211C282.204 302.191 282.736 303.307 282.82 304.558C282.903 305.809 282.236 307.143 280.817 308.561C279.44 309.938 278.116 310.594 276.843 310.532C275.571 310.47 274.444 309.948 273.463 308.968C272.483 307.988 271.961 306.862 271.899 305.589C271.836 304.318 272.493 302.993 273.87 301.617ZM293.091 320.832C294.51 319.414 295.846 318.747 297.097 318.83C298.349 318.913 299.465 319.445 300.445 320.425C301.426 321.405 301.958 322.521 302.041 323.772C302.124 325.023 301.457 326.358 300.038 327.776C298.662 329.152 297.337 329.81 296.064 329.747C294.792 329.684 293.666 329.163 292.685 328.183C291.704 327.202 291.183 326.077 291.12 324.805C291.058 323.532 291.715 322.208 293.091 320.832ZM304.857 332.592C306.275 331.175 307.61 330.507 308.862 330.591C310.114 330.674 311.23 331.206 312.211 332.186C313.19 333.166 313.723 334.282 313.806 335.533C313.89 336.784 313.222 338.119 311.804 339.537C310.426 340.913 309.102 341.57 307.83 341.508C306.557 341.445 305.43 340.924 304.45 339.944C303.47 338.963 302.948 337.837 302.886 336.566C302.823 335.293 303.48 333.969 304.857 332.592ZM316.622 344.353C318.041 342.935 319.375 342.268 320.627 342.351C321.879 342.435 322.995 342.967 323.975 343.947C324.956 344.927 325.488 346.042 325.572 347.294C325.655 348.545 324.988 349.88 323.569 351.298C322.192 352.675 320.867 353.331 319.595 353.268C318.322 353.206 317.195 352.684 316.215 351.705C315.235 350.725 314.713 349.598 314.651 348.326C314.588 347.055 315.245 345.73 316.622 344.353ZM328.387 356.115C329.806 354.696 331.141 354.029 332.392 354.112C333.643 354.196 334.76 354.728 335.74 355.708C336.721 356.688 337.253 357.804 337.336 359.055C337.42 360.307 336.752 361.641 335.334 363.059C333.957 364.435 332.632 365.092 331.359 365.03C330.087 364.968 328.961 364.446 327.98 363.465C326.999 362.486 326.478 361.36 326.415 360.087C326.353 358.815 327.01 357.491 328.387 356.115ZM345.624 388.524C347.113 387.035 346.889 385.321 344.948 383.381L341.776 380.209L348.028 374.973L354.58 381.523L353.228 382.874L348.103 377.751L344.385 380.829C345.149 381.367 345.825 381.929 346.412 382.518C347.702 383.807 348.428 385.108 348.591 386.421C348.766 387.723 348.278 388.949 347.127 390.1C345.974 391.251 344.629 391.821 343.09 391.808C341.562 391.783 340.186 391.158 338.959 389.931C337.733 388.705 337.038 387.397 336.875 386.009C336.724 384.608 337.194 383.362 338.283 382.274L339.766 383.756C338.74 384.783 338.596 385.977 339.334 387.342C339.573 387.754 339.885 388.155 340.274 388.542C341.075 389.343 341.969 389.737 342.958 389.725C343.96 389.699 344.848 389.3 345.624 388.524ZM348.449 396.264L355.301 403.115L353.931 404.485L345.595 396.152L347.341 394.406C348.73 393.017 350.276 392.524 351.979 392.924C352.529 393.049 353.092 393.237 353.668 393.487L356.935 394.875C358.612 395.602 359.996 395.419 361.084 394.331C361.685 393.73 361.967 393.036 361.929 392.248C361.904 391.447 361.516 390.672 360.765 389.921C360.027 389.183 359.263 388.732 358.474 388.57C357.699 388.419 356.96 388.619 356.259 389.169L354.626 387.537C355.714 386.574 356.916 386.198 358.231 386.411C359.545 386.624 360.797 387.325 361.985 388.513C363.187 389.714 363.838 391.015 363.938 392.417C364.039 393.818 363.607 395.001 362.643 395.964C361.691 396.915 360.684 397.422 359.619 397.484C358.569 397.56 357.442 397.334 356.24 396.809L352.898 395.382C352.047 395.032 351.309 394.869 350.683 394.895C350.082 394.92 349.525 395.189 349.012 395.702L348.449 396.264ZM373.552 406.532C372.301 407.784 370.742 407.965 368.877 407.077C369.415 408.04 369.672 408.997 369.647 409.948C369.622 410.899 369.228 411.757 368.465 412.519C367.426 413.558 366.193 414.002 364.766 413.853C363.351 413.69 361.999 412.963 360.71 411.675C359.421 410.386 358.651 408.954 358.401 407.377C358.176 405.8 358.67 404.405 359.884 403.191L361.424 404.731C360.648 405.556 360.328 406.464 360.466 407.452C360.616 408.453 361.129 409.392 362.006 410.268C362.882 411.143 363.764 411.612 364.653 411.675C365.567 411.737 366.33 411.462 366.943 410.849C367.569 410.223 367.844 409.485 367.77 408.634C367.707 407.771 367.157 406.821 366.118 405.782L364.766 404.43L365.948 403.248L366.868 404.167C367.77 405.069 368.659 405.607 369.535 405.782C370.423 405.945 371.168 405.725 371.769 405.124C372.37 404.525 372.651 403.818 372.614 403.004C372.576 402.191 372.207 401.433 371.506 400.732C370.805 400.033 370.091 399.569 369.366 399.344C368.665 399.119 367.901 399.257 367.075 399.757L365.535 398.218C366.712 397.317 367.913 396.979 369.14 397.204C370.379 397.417 371.569 398.092 372.708 399.231C373.859 400.383 374.516 401.653 374.679 403.042C374.866 404.43 374.491 405.594 373.552 406.532ZM378.186 406.96C379.138 407.687 380.189 408.099 381.341 408.2L382.543 409.4L370.695 421.244L369.23 419.78L379.313 409.701C378.286 409.476 377.423 409.05 376.722 408.425L378.186 406.96Z" fill="#C9C9C9"/>
<path d="M378.583 62.6624L356.738 78.1415L361.824 83.2266L383.672 67.7502L378.583 62.6624Z" fill="white"/>
<path d="M371.116 55.2401L353.404 62.9841L354.796 60.5318C356.129 57.2347 356.665 51.1215 355.486 45.7525L344.477 65.8668L349.869 71.2384L376.509 60.6234L371.116 55.2401Z" fill="white"/>
<path d="M362.336 49.1334C363.176 47.7013 362.659 46.5058 361.636 45.402L353.749 37.5179L353.311 37.824C357.961 45.4477 358.434 53.0938 355.806 59.0906L362.336 49.1334Z" fill="white"/>
<path d="M390.404 81.6336C392.094 83.2711 392.937 84.8406 393.496 86.1538L393.74 86.8286L398.474 83.4725C397.845 82.0875 396.671 80.1034 394.7 78.1336C389.674 73.1087 383.599 72.0977 379.943 75.697C377.23 78.3442 378.29 82.3961 379.327 85.2199C380.394 88.1169 380.476 89.3631 379.649 90.1718C378.384 91.4051 376.246 90.4133 374.785 88.9526C372.748 86.9163 371.947 85.5534 370.972 83.1874L370.615 82.2339L365.722 85.6947C366.39 87.4067 368.138 90.0514 370.395 92.3545C375.743 97.7002 381.719 98.6726 385.632 94.8345C387.775 92.7367 388.037 89.7621 386.425 85.4959C385.512 82.8513 384.999 81.1876 385.884 80.3244C386.659 79.5488 388.412 79.643 390.404 81.6336Z" fill="white"/>
<path d="M411.97 96.0811L408.041 92.1519C406.82 90.9318 405.579 90.3558 403.826 91.0362L379.168 100.585L384.509 105.925C384.509 105.925 387.681 104.497 388.382 104.191C388.967 104.776 394.149 109.972 394.888 110.711C394.389 111.514 392.713 114.126 392.713 114.126L397.432 118.843L411.97 96.0811ZM393.667 101.836C395.157 101.183 400.91 98.6469 400.91 98.6469C400.832 98.6708 402.404 97.9825 403.369 97.5427L402.103 99.4945C402.103 99.4945 398.622 104.923 397.892 106.06L393.667 101.836Z" fill="white"/>
<g filter="url(#filter2_d)">
<path d="M781.672 640.639L393.653 252.752C388.468 247.57 380.062 247.57 374.877 252.752L143.317 484.233C138.133 489.416 138.133 497.819 143.317 503.002L531.337 890.889C536.522 896.071 544.927 896.071 550.112 890.889L781.672 659.408C786.857 654.225 786.857 645.822 781.672 640.639Z" fill="white"/>
</g>
<g filter="url(#filter3_d)">
<path d="M640.233 749.497L602.682 711.959C599.226 708.504 593.622 708.504 590.166 711.959L565.132 736.984C561.676 740.44 561.676 746.042 565.132 749.497L602.682 787.034C606.139 790.49 611.743 790.49 615.199 787.034L640.233 762.009C643.689 758.554 643.689 752.952 640.233 749.497Z" fill="#DCDCDC"/>
</g>
<path d="M208.466 455.204C209.885 453.786 211.221 453.119 212.472 453.202C213.724 453.285 214.84 453.817 215.82 454.797C216.801 455.777 217.333 456.893 217.416 458.144C217.499 459.395 216.832 460.73 215.413 462.148C214.037 463.524 212.712 464.182 211.439 464.119C210.167 464.056 209.04 463.535 208.06 462.555C207.08 461.575 206.558 460.449 206.495 459.177C206.433 457.904 207.09 456.581 208.466 455.204ZM220.232 466.965C221.65 465.547 222.985 464.88 224.237 464.963C225.489 465.046 226.605 465.578 227.586 466.558C228.565 467.538 229.097 468.654 229.181 469.905C229.265 471.156 228.597 472.491 227.179 473.91C225.801 475.285 224.477 475.943 223.205 475.88C221.932 475.817 220.805 475.296 219.825 474.316C218.845 473.335 218.323 472.21 218.261 470.938C218.198 469.665 218.854 468.341 220.232 466.965ZM231.997 478.725C233.416 477.308 234.75 476.64 236.002 476.724C237.254 476.807 238.37 477.339 239.35 478.319C240.331 479.3 240.863 480.415 240.946 481.666C241.03 482.917 240.363 484.253 238.944 485.67C237.567 487.047 236.242 487.703 234.97 487.641C233.697 487.578 232.57 487.057 231.59 486.077C230.609 485.097 230.088 483.97 230.025 482.699C229.963 481.427 230.62 480.102 231.997 478.725ZM243.762 490.487C245.18 489.068 246.516 488.401 247.767 488.484C249.019 488.568 250.135 489.1 251.115 490.08C252.096 491.06 252.628 492.176 252.711 493.428C252.795 494.679 252.127 496.013 250.709 497.431C249.332 498.808 248.007 499.464 246.734 499.402C245.462 499.34 244.336 498.818 243.355 497.838C242.374 496.858 241.853 495.732 241.79 494.459C241.728 493.188 242.385 491.863 243.762 490.487ZM262.983 509.702C264.402 508.284 265.737 507.616 266.988 507.7C268.24 507.783 269.357 508.315 270.336 509.295C271.317 510.275 271.849 511.391 271.933 512.642C272.016 513.893 271.349 515.228 269.93 516.646C268.553 518.022 267.228 518.679 265.956 518.617C264.683 518.554 263.557 518.033 262.576 517.053C261.596 516.072 261.074 514.946 261.012 513.675C260.949 512.402 261.606 511.078 262.983 509.702ZM274.748 521.462C276.166 520.045 277.502 519.377 278.753 519.461C280.005 519.544 281.121 520.076 282.102 521.056C283.082 522.036 283.614 523.151 283.697 524.403C283.781 525.654 283.113 526.989 281.695 528.407C280.318 529.784 278.993 530.44 277.72 530.378C276.449 530.315 275.322 529.794 274.341 528.814C273.361 527.833 272.839 526.707 272.776 525.435C272.714 524.163 273.371 522.839 274.748 521.462ZM286.513 533.223C287.931 531.805 289.267 531.138 290.518 531.221C291.77 531.305 292.886 531.837 293.867 532.816C294.847 533.797 295.379 534.912 295.462 536.164C295.546 537.415 294.878 538.75 293.46 540.168C292.083 541.545 290.758 542.201 289.486 542.138C288.213 542.076 287.087 541.554 286.106 540.575C285.126 539.595 284.604 538.468 284.542 537.196C284.479 535.924 285.136 534.6 286.513 533.223ZM298.278 544.985C299.697 543.566 301.032 542.899 302.284 542.982C303.535 543.066 304.651 543.597 305.632 544.578C306.613 545.558 307.145 546.674 307.228 547.925C307.311 549.176 306.644 550.511 305.225 551.929C303.849 553.305 302.524 553.962 301.251 553.9C299.978 553.837 298.851 553.316 297.872 552.335C296.891 551.356 296.37 550.23 296.307 548.957C296.244 547.685 296.902 546.36 298.278 544.985ZM317.5 564.199C318.918 562.781 320.253 562.114 321.505 562.197C322.756 562.281 323.872 562.813 324.853 563.793C325.834 564.772 326.366 565.888 326.449 567.14C326.532 568.391 325.865 569.725 324.446 571.144C323.07 572.52 321.745 573.177 320.472 573.114C319.2 573.052 318.073 572.53 317.093 571.551C316.112 570.57 315.591 569.444 315.528 568.172C315.465 566.899 316.123 565.576 317.5 564.199ZM329.264 575.96C330.683 574.542 332.018 573.875 333.27 573.958C334.521 574.041 335.638 574.573 336.618 575.553C337.599 576.534 338.131 577.649 338.214 578.9C338.297 580.152 337.63 581.487 336.211 582.905C334.835 584.281 333.51 584.938 332.237 584.875C330.964 584.812 329.839 584.291 328.858 583.311C327.877 582.332 327.356 581.205 327.293 579.933C327.23 578.661 327.888 577.337 329.264 575.96ZM341.029 587.721C342.448 586.303 343.783 585.636 345.035 585.719C346.287 585.802 347.403 586.334 348.383 587.314C349.363 588.295 349.895 589.41 349.979 590.662C350.062 591.913 349.395 593.248 347.976 594.666C346.599 596.042 345.275 596.699 344.002 596.636C342.73 596.574 341.603 596.052 340.622 595.072C339.642 594.092 339.12 592.966 339.058 591.694C338.995 590.422 339.652 589.097 341.029 587.721ZM352.795 599.482C354.213 598.064 355.548 597.396 356.8 597.48C358.052 597.564 359.168 598.095 360.148 599.076C361.128 600.056 361.66 601.172 361.744 602.423C361.828 603.674 361.16 605.009 359.741 606.426C358.364 607.803 357.039 608.46 355.768 608.398C354.495 608.335 353.368 607.814 352.387 606.833C351.407 605.853 350.885 604.727 350.824 603.455C350.761 602.183 351.417 600.858 352.795 599.482ZM370.032 631.892C371.522 630.403 371.296 628.688 369.356 626.748L366.183 623.577L372.435 618.341L378.987 624.89L377.636 626.242L372.51 621.118L368.793 624.196C369.556 624.734 370.232 625.297 370.821 625.885C372.109 627.174 372.835 628.476 372.998 629.789C373.173 631.091 372.686 632.316 371.534 633.468C370.383 634.619 369.036 635.188 367.497 635.176C365.971 635.151 364.593 634.526 363.367 633.299C362.14 632.073 361.445 630.765 361.282 629.376C361.133 627.975 361.602 626.73 362.691 625.642L364.174 627.124C363.147 628.15 363.004 629.345 363.742 630.709C363.98 631.122 364.292 631.522 364.681 631.91C365.482 632.711 366.377 633.105 367.365 633.092C368.367 633.067 369.256 632.667 370.032 631.892ZM372.856 639.632L379.71 646.482L378.339 647.853L370.002 639.519L371.748 637.774C373.138 636.385 374.684 635.891 376.386 636.292C376.937 636.416 377.499 636.604 378.076 636.854L381.342 638.243C383.02 638.969 384.403 638.787 385.492 637.699C386.093 637.098 386.374 636.404 386.337 635.616C386.312 634.815 385.924 634.039 385.173 633.289C384.434 632.55 383.671 632.1 382.882 631.937C382.106 631.786 381.367 631.987 380.666 632.538L379.033 630.904C380.122 629.942 381.324 629.566 382.638 629.779C383.953 629.991 385.204 630.692 386.393 631.881C387.595 633.082 388.246 634.383 388.346 635.785C388.446 637.186 388.014 638.368 387.05 639.332C386.099 640.283 385.092 640.79 384.028 640.852C382.976 640.927 381.85 640.702 380.648 640.177L377.306 638.75C376.455 638.4 375.716 638.237 375.09 638.262C374.489 638.287 373.933 638.556 373.419 639.069L372.856 639.632ZM397.96 649.9C396.708 651.151 395.15 651.333 393.285 650.444C393.823 651.408 394.08 652.365 394.055 653.316C394.03 654.266 393.635 655.124 392.872 655.887C391.833 656.926 390.6 657.37 389.174 657.22C387.759 657.057 386.407 656.332 385.118 655.042C383.829 653.754 383.059 652.321 382.808 650.744C382.583 649.168 383.077 647.773 384.292 646.559L385.832 648.098C385.055 648.924 384.736 649.831 384.874 650.819C385.024 651.821 385.537 652.759 386.413 653.635C387.289 654.511 388.172 654.98 389.06 655.042C389.975 655.105 390.737 654.83 391.351 654.217C391.977 653.591 392.253 652.853 392.177 652.002C392.115 651.139 391.564 650.188 390.525 649.149L389.174 647.798L390.356 646.616L391.276 647.535C392.177 648.436 393.066 648.974 393.942 649.149C394.831 649.312 395.575 649.093 396.176 648.492C396.777 647.892 397.059 647.185 397.021 646.372C396.983 645.559 396.614 644.801 395.913 644.101C395.212 643.4 394.499 642.937 393.773 642.711C393.072 642.487 392.308 642.624 391.483 643.125L389.943 641.585C391.12 640.684 392.321 640.346 393.548 640.572C394.787 640.784 395.976 641.46 397.115 642.599C398.267 643.75 398.923 645.02 399.086 646.409C399.274 647.798 398.899 648.961 397.96 649.9ZM402.594 650.328C403.545 651.054 404.597 651.467 405.748 651.567L406.95 652.769L395.103 664.611L393.639 663.148L403.721 653.068C402.694 652.844 401.831 652.418 401.13 651.793L402.594 650.328Z" fill="#5F5F5F"/>
<path d="M402.99 306.03L381.145 321.509L386.232 326.594L408.08 311.118L402.99 306.03Z" fill="black"/>
<path d="M395.524 298.608L377.813 306.352L379.203 303.899C380.536 300.603 381.073 294.489 379.894 289.12L368.884 309.234L374.276 314.606L400.917 303.991L395.524 298.608Z" fill="black"/>
<path d="M386.743 292.501C387.585 291.069 387.066 289.873 386.043 288.77L378.156 280.886L377.72 281.192C382.368 288.816 382.842 296.461 380.213 302.458L386.743 292.501Z" fill="black"/>
<path d="M414.811 325.001C416.502 326.639 417.344 328.208 417.905 329.521L418.148 330.196L422.881 326.84C422.252 325.455 421.079 323.471 419.108 321.502C414.081 316.476 408.007 315.465 404.351 319.065C401.638 321.712 402.697 325.764 403.735 328.588C404.801 331.485 404.884 332.731 404.057 333.539C402.791 334.772 400.654 333.781 399.193 332.321C397.155 330.284 396.354 328.921 395.38 326.555L395.023 325.602L390.129 329.062C390.798 330.774 392.546 333.419 394.803 335.723C400.15 341.067 406.126 342.041 410.04 338.202C412.183 336.104 412.445 333.13 410.833 328.864C409.92 326.219 409.406 324.555 410.291 323.692C411.067 322.916 412.82 323.01 414.811 325.001Z" fill="black"/>
<path d="M436.379 339.448L432.448 335.519C431.228 334.299 429.987 333.724 428.233 334.404L403.575 343.953L408.918 349.293C408.918 349.293 412.089 347.865 412.79 347.559C413.375 348.144 418.557 353.34 419.296 354.079C418.797 354.881 417.121 357.494 417.121 357.494L421.84 362.212L436.379 339.448ZM418.075 345.203C419.565 344.551 425.317 342.014 425.317 342.014C425.239 342.038 426.812 341.35 427.778 340.911L426.511 342.862C426.511 342.862 423.029 348.292 422.301 349.428L418.075 345.203Z" fill="black"/>
</g>
<defs>
<filter id="filter0_d" x="100.02" y="-9.50278" width="676.132" height="675.911" filterUnits="userSpaceOnUse" color-interpolation-filters="sRGB">
<feFlood flood-opacity="0" result="BackgroundImageFix"/>
<feColorMatrix in="SourceAlpha" type="matrix" values="0 0 0 0 0 0 0 0 0 0 0 0 0 0 0 0 0 0 127 0" result="hardAlpha"/>
<feOffset/>
<feGaussianBlur stdDeviation="7.5"/>
<feColorMatrix type="matrix" values="0 0 0 0 0.795833 0 0 0 0 0.795833 0 0 0 0 0.795833 0 0 0 0.25 0"/>
<feBlend mode="normal" in2="BackgroundImageFix" result="effect1_dropShadow"/>
<feBlend mode="normal" in="SourceGraphic" in2="effect1_dropShadow" result="shape"/>
</filter>
<filter id="filter1_d" x="523.132" y="451.001" width="110.285" height="110.258" filterUnits="userSpaceOnUse" color-interpolation-filters="sRGB">
<feFlood flood-opacity="0" result="BackgroundImageFix"/>
<feColorMatrix in="SourceAlpha" type="matrix" values="0 0 0 0 0 0 0 0 0 0 0 0 0 0 0 0 0 0 127 0" result="hardAlpha"/>
<feOffset/>
<feGaussianBlur stdDeviation="7.5"/>
<feColorMatrix type="matrix" values="0 0 0 0 0.708333 0 0 0 0 0.708333 0 0 0 0 0.708333 0 0 0 0.25 0"/>
<feBlend mode="normal" in2="BackgroundImageFix" result="effect1_dropShadow"/>
<feBlend mode="normal" in="SourceGraphic" in2="effect1_dropShadow" result="shape"/>
</filter>
<filter id="filter2_d" x="124.429" y="233.865" width="676.132" height="675.91" filterUnits="userSpaceOnUse" color-interpolation-filters="sRGB">
<feFlood flood-opacity="0" result="BackgroundImageFix"/>
<feColorMatrix in="SourceAlpha" type="matrix" values="0 0 0 0 0 0 0 0 0 0 0 0 0 0 0 0 0 0 127 0" result="hardAlpha"/>
<feOffset/>
<feGaussianBlur stdDeviation="7.5"/>
<feColorMatrix type="matrix" values="0 0 0 0 0.795833 0 0 0 0 0.795833 0 0 0 0 0.795833 0 0 0 0.25 0"/>
<feBlend mode="normal" in2="BackgroundImageFix" result="effect1_dropShadow"/>
<feBlend mode="normal" in="SourceGraphic" in2="effect1_dropShadow" result="shape"/>
</filter>
<filter id="filter3_d" x="547.54" y="694.368" width="110.285" height="110.258" filterUnits="userSpaceOnUse" color-interpolation-filters="sRGB">
<feFlood flood-opacity="0" result="BackgroundImageFix"/>
<feColorMatrix in="SourceAlpha" type="matrix" values="0 0 0 0 0 0 0 0 0 0 0 0 0 0 0 0 0 0 127 0" result="hardAlpha"/>
<feOffset/>
<feGaussianBlur stdDeviation="7.5"/>
<feColorMatrix type="matrix" values="0 0 0 0 0.708333 0 0 0 0 0.708333 0 0 0 0 0.708333 0 0 0 0.25 0"/>
<feBlend mode="normal" in2="BackgroundImageFix" result="effect1_dropShadow"/>
<feBlend mode="normal" in="SourceGraphic" in2="effect1_dropShadow" result="shape"/>
</filter>
<clipPath id="clip0">
<rect width="901" height="906" fill="white"/>
</clipPath>
</defs>
</svg>
