<?xml version="1.0"?>
<svg xmlns="http://www.w3.org/2000/svg" xmlns:xlink="http://www.w3.org/1999/xlink" xmlns:svgjs="http://svgjs.com/svgjs" version="1.1" width="512" height="512" x="0" y="0" viewBox="0 0 512.005 512.005" style="enable-background:new 0 0 512 512" xml:space="preserve" class=""><rect width="512.005" height="512.005" rx="20" ry="20" fill="#8c8cf9" shape="rounded"/><g transform="matrix(0.49999999999999994,0,0,0.49999999999999994,128.00099945068374,128.00107073783883)"><g xmlns="http://www.w3.org/2000/svg"><path d="m352.085 504.505h-192.165l4.723-8.49c18.446-33.161 53.413-53.723 91.359-53.723 37.946 0 72.913 20.562 91.359 53.723z" fill="#e4936b" data-original="#e4936b" style=""/><path d="m347.362 496.014c-14.182-25.495-38.13-43.542-65.689-50.524 10.281 8.297 19.054 18.595 25.689 30.524 2.118 3.808-.635 8.49-4.992 8.49h-130.299c-2.703 3.641-5.188 7.482-7.428 11.51l-4.723 8.49h192.165z" fill="#e27d47" data-original="#e27d47" style=""/><path d="m384.566 344.985c-.036-.134-.072-.267-.107-.401-1.947-7.266-9.413-11.578-16.678-9.631-29.624 7.938-99.005 26.528-99.005 26.528v-101.397h-25.546v63.482s-65.593-17.576-93.601-25.08c-6.869-1.84-13.927 2.236-15.768 9.105-.034.126-.068.253-.102.379-1.84 6.869 2.236 13.929 9.105 15.769l100.365 26.893v92.708c2.853-.692 7.787-1.048 12.773-1.048s9.92.355 12.773 1.047v-53.228l106.161-28.446c7.265-1.947 11.577-9.414 9.63-16.68z" fill="#e2f4b4" data-original="#e2f4b4" style=""/><path d="m348.865 305.966c-35.526 9.519-53.585 34.151-61.987 50.665 22.643-6.067 60.867-16.309 80.904-21.678 7.266-1.947 14.731 2.365 16.678 9.631.036.134.072.267.107.401 1.947 7.266-2.365 14.733-9.631 16.68l-80.9 21.677c15.534 10.101 43.489 22.402 79.014 12.883 55.537-14.881 68.389-66.694 68.389-66.694s-37.038-38.446-92.574-23.565z" fill="#80cb8e" data-original="#80cb8e" style=""/><path d="m142.864 323.739c-6.869-1.841-10.945-8.901-9.105-15.769.034-.126.068-.253.102-.379 1.84-6.869 8.899-10.946 15.768-9.105 18.943 5.076 55.08 14.759 76.487 20.494-7.943-15.613-25.017-38.9-58.603-47.899-52.505-14.069-87.52 22.278-87.52 22.278s12.15 48.985 64.655 63.053c33.586 8.999 60.015-2.63 74.7-12.18z" fill="#80cb8e" data-original="#80cb8e" style=""/><path d="m396.637 305.235c3.142 2.574 4.801 4.296 4.801 4.296s-4.071 16.411-17.53 33.414c.215.528.4 1.074.551 1.639.036.134.072.267.107.401 1.947 7.265-2.365 14.733-9.631 16.68l-18.326 4.91c-6.837 3.923-14.649 7.262-23.56 9.65s-17.346 3.402-25.228 3.423l-13.786 3.694c15.534 10.101 43.489 22.402 79.014 12.883 55.537-14.881 68.389-66.694 68.389-66.694s-16.826-17.465-44.801-24.296z" fill="#66b49d" data-original="#66b49d" style=""/><path d="m190.688 309.487c12.854 3.444 25.671 6.878 35.428 9.493-7.943-15.613-25.017-38.9-58.603-47.899-1.253-.336-2.495-.642-3.728-.922 16.36 14.211 24 31.272 26.903 39.328z" fill="#66b49d" data-original="#66b49d" style=""/><path d="m108.375 337.334c9.138 7.937 20.997 14.986 36.272 19.078 33.586 8.999 60.015-2.63 74.7-12.18l-51.186-13.715c-14.589 6.994-35.151 12.402-59.786 6.817z" fill="#66b49d" data-original="#66b49d" style=""/><path d="m347.34 98.842c0-50.444-40.893-91.337-91.337-91.337s-91.337 40.893-91.337 91.337c0 26.253 11.076 49.016 28.81 67.939 12.302 13.127 20.015 29.769 22.295 47.44.817 6.328 6.203 11.064 12.583 11.064h53.922c7.043 0 13.114-5.129 14.1-12.103 2.444-17.284 10.094-33.532 22.155-46.401 17.733-18.923 28.809-41.686 28.809-67.939z" fill="#f9efaf" data-original="#f9efaf" style="" class=""/><path d="m275.579 9.608c19.448 16.75 31.761 41.554 31.761 69.234 0 26.252-11.076 49.016-28.81 67.938-9.776 10.431-16.654 23.083-20.211 36.706-3.349 12.829-14.904 21.798-28.163 21.798h-16.023c.703 2.951 1.251 5.945 1.641 8.969.813 6.316 6.211 11.031 12.579 11.031h53.922c7.074 0 13.114-5.177 14.111-12.18 2.456-17.255 10.101-33.474 22.144-46.324 17.734-18.922 28.81-41.686 28.81-67.939 0-43.724-30.724-80.272-71.761-89.233z" fill="#f6e781" data-original="#f6e781" style=""/><path d="m274.484 260.084h-36.963c-4.994 0-9.042-4.048-9.042-9.042v-25.757h55.047v25.757c0 4.993-4.048 9.042-9.042 9.042z" fill="#f1f4f6" data-original="#f1f4f6" style=""/><g fill="#f4dd45"><path d="m400.735 101.853c0-7.087 5.745-12.832 12.832-12.832h17.292c7.087 0 12.832 5.745 12.832 12.832 0 7.087-5.745 12.832-12.832 12.832h-17.292c-7.087 0-12.832-5.745-12.832-12.832z" fill="#f4dd45" data-original="#f4dd45" style=""/><path d="m375.792 162.07c5.011-5.011 13.136-5.011 18.147 0l12.227 12.227c5.011 5.011 5.011 13.136 0 18.147-5.011 5.011-13.136 5.011-18.147 0l-12.227-12.227c-5.011-5.012-5.011-13.136 0-18.147z" fill="#f4dd45" data-original="#f4dd45" style=""/><path d="m375.792 41.637c5.011 5.011 13.136 5.011 18.147 0l12.227-12.227c5.011-5.011 5.011-13.136 0-18.147-5.011-5.011-13.136-5.011-18.147 0l-12.227 12.227c-5.011 5.011-5.011 13.136 0 18.147z" fill="#f4dd45" data-original="#f4dd45" style=""/><path d="m111.27 101.853c0-7.087-5.745-12.832-12.832-12.832h-17.292c-7.087 0-12.832 5.745-12.832 12.832 0 7.087 5.745 12.832 12.832 12.832h17.292c7.087 0 12.832-5.745 12.832-12.832z" fill="#f4dd45" data-original="#f4dd45" style=""/><path d="m136.212 162.07c-5.011-5.011-13.136-5.011-18.147 0l-12.227 12.227c-5.011 5.011-5.011 13.136 0 18.147 5.011 5.011 13.136 5.011 18.147 0l12.227-12.227c5.011-5.012 5.011-13.136 0-18.147z" fill="#f4dd45" data-original="#f4dd45" style=""/><path d="m136.212 41.637c-5.011 5.011-13.136 5.011-18.147 0l-12.227-12.227c-5.011-5.011-5.011-13.136 0-18.147 5.011-5.011 13.136-5.011 18.147 0l12.227 12.227c5.011 5.011 5.011 13.136 0 18.147z" fill="#f4dd45" data-original="#f4dd45" style=""/></g><path d="m256.002 449.792c34.174.001 65.801 18.012 83.273 47.212h-166.546c5.086-8.506 11.412-16.143 18.833-22.731 3.098-2.75 3.379-7.49.629-10.588-2.75-3.097-7.49-3.379-10.588-.629-9.452 8.393-17.363 18.254-23.514 29.312l-4.723 8.49c-2.776 4.992.839 11.146 6.554 11.146h192.165c5.713 0 9.332-6.152 6.554-11.146l-4.723-8.489c-16.416-29.51-45.096-49.732-77.641-55.726v-40.777l16.543-4.433c24.339 14.75 53.085 19.83 82.172 12.036 59.13-15.844 73.159-69.842 73.727-72.133.621-2.504-.088-5.151-1.878-7.009-1.637-1.7-40.789-41.449-99.916-25.605-36.916 9.892-56.259 35.335-65.145 51.511l-5.503 1.475v-39.089h-15v48.863c0 4.925 4.682 8.524 9.441 7.244l99.005-26.528c3.286-.877 6.623 1.081 7.49 4.317l.11.41c.873 3.26-1.068 6.622-4.327 7.496-90.431 24.23 112.811-30.227-106.161 28.445-3.279.878-5.559 3.85-5.559 7.244v44.806c-3.423-.161-6.911-.171-10.546-.002v-84.283c0-3.395-2.28-6.366-5.559-7.244-106.993-28.669-100.735-26.874-101.731-27.471-2.152-1.275-3.34-4.038-2.117-7.029.001-.002.001-.004.002-.005 1.009-2.464 3.727-3.855 6.363-3.153 53.396 14.308 87.231 23.373 93.601 25.08 4.759 1.276 9.441-2.316 9.441-7.244v-55.981h10.546v10.035c0 4.143 3.358 7.5 7.5 7.5s7.5-3.357 7.5-7.5v-10.132c8.282-.896 14.75-7.929 14.75-16.445v-20.099c6.696-2.948 11.709-9.167 12.776-16.71 2.263-16.001 9.248-30.636 20.201-42.322 2.833-3.022 2.679-7.769-.343-10.602-3.022-2.831-7.769-2.679-10.601.344-13.075 13.951-21.411 31.406-24.109 50.479-.456 3.223-3.325 5.653-6.674 5.653h-6.273v-59.301c8.615-6.223 14.233-16.351 14.233-27.767 0-4.143-3.358-7.5-7.5-7.5s-7.5 3.357-7.5 7.5c0 10.604-8.628 19.232-19.233 19.232s-19.233-8.628-19.233-19.232c0-4.143-3.358-7.5-7.5-7.5s-7.5 3.357-7.5 7.5c0 11.416 5.617 21.544 14.233 27.767v59.301h-7.649c-2.6 0-4.812-1.945-5.145-4.524-2.519-19.516-10.909-37.361-24.261-51.608-17.771-18.962-26.782-40.095-26.782-62.811 0-46.228 37.609-83.837 83.837-83.837s83.837 37.609 83.837 83.837c0 12.372-2.715 24.414-8.071 35.789-1.764 3.747-.157 8.216 3.591 9.979 3.748 1.764 8.216.158 9.98-3.591 6.304-13.389 9.5-27.579 9.5-42.178 0-54.499-44.338-98.837-98.837-98.837s-98.837 44.338-98.837 98.837c0 26.65 10.375 51.234 30.837 73.068 11.187 11.936 18.216 26.898 20.329 43.271.964 7.468 5.976 13.569 12.647 16.203v19.658c0 8.516 6.469 15.549 14.75 16.445v46.304l-4.519-1.211c-8.473-15.362-26.829-39.385-61.757-48.743-56.131-15.046-93.307 22.705-94.862 24.319-1.79 1.857-2.499 4.505-1.878 7.009.54 2.176 13.86 53.451 69.994 68.492 27.584 7.392 54.809 2.578 77.855-11.334l15.167 4.064v80.243c-7.513 1.381-14.875 3.535-22.028 6.453-3.836 1.563-5.677 5.941-4.113 9.776 1.564 3.836 5.943 5.681 9.777 4.112 11.684-4.762 24.011-7.177 36.639-7.178zm135.805-106.762c-3.323-12.414-15.307-18.183-25.967-15.32l-62.402 16.72c9.854-12.678 24.846-25.184 47.368-31.219 30.659-8.215 60.41.364 82.029 18.625-9.509 26.396-30.846 48.871-61.727 57.146-22.521 6.035-41.757 2.701-56.629-3.352l62.398-16.72c11.248-3.015 17.948-14.617 14.93-25.88zm-140.805-178.445c3.196.469 6.574.503 10 0v53.2h-10zm25.024 68.2v18.257c0 .851-.692 1.542-1.542 1.542h-36.963c-.85 0-1.542-.691-1.542-1.542v-18.257zm-129.437 116.384c-39.36-10.547-53.938-42.063-58.013-53.483 9.241-7.759 37.911-27.829 76.995-17.36 20.615 5.523 34.526 16.812 43.803 28.404l-57.805-15.488c-12.674-3.396-25.448 5.962-25.746 19.615-.202 9.266 5.952 17.676 15.1 20.127l57.8 15.488c-13.83 5.4-31.521 8.217-52.134 2.697z" fill="#000000" data-original="#000000" style="" class=""/><path d="m182.165 98.841c0 4.143 3.358 7.5 7.5 7.5s7.5-3.357 7.5-7.5c0-32.442 26.395-58.837 58.837-58.837 4.142 0 7.5-3.357 7.5-7.5s-3.358-7.5-7.5-7.5c-40.714.001-73.837 33.124-73.837 73.837z" fill="#000000" data-original="#000000" style="" class=""/><path d="m430.858 81.521h-17.292c-11.211 0-20.332 9.121-20.332 20.332s9.121 20.332 20.332 20.332h17.292c11.211 0 20.332-9.121 20.332-20.332s-9.121-20.332-20.332-20.332zm0 25.664h-17.292c-2.94 0-5.332-2.392-5.332-5.332s2.392-5.332 5.332-5.332h17.292c2.94 0 5.332 2.392 5.332 5.332s-2.392 5.332-5.332 5.332z" fill="#000000" data-original="#000000" style="" class=""/><path d="m364.534 171.143c0 5.431 2.115 10.537 5.955 14.376l12.227 12.229c7.927 7.925 20.826 7.927 28.754-.001 7.945-7.945 7.947-20.807 0-28.753l-12.227-12.227c-3.84-3.841-8.946-5.956-14.377-5.956-11.236 0-20.332 9.093-20.332 20.332zm16.562-3.769c2.083-2.084 5.456-2.086 7.54 0l12.228 12.228c2.083 2.082 2.084 5.455 0 7.539-2.079 2.079-5.461 2.079-7.541.001l-12.227-12.229c-2.083-2.082-2.085-5.456 0-7.539z" fill="#000000" data-original="#000000" style="" class=""/><path d="m411.47 34.713c7.944-7.944 7.947-20.807 0-28.752-7.945-7.946-20.806-7.949-28.754-.001l-12.228 12.228c-7.926 7.927-7.926 20.826 0 28.753v.001c7.929 7.928 20.826 7.926 28.753 0zm-30.374 1.622c-2.079-2.079-2.079-5.463 0-7.541l12.228-12.228c2.083-2.083 5.456-2.085 7.54.001 2.083 2.082 2.084 5.455 0 7.539l-12.228 12.228c-2.084 2.083-5.456 2.083-7.54.001z" fill="#000000" data-original="#000000" style="" class=""/><path d="m60.814 101.853c0 11.211 9.121 20.332 20.332 20.332h17.292c11.211 0 20.332-9.121 20.332-20.332s-9.121-20.332-20.332-20.332h-17.292c-11.211 0-20.332 9.121-20.332 20.332zm42.956 0c0 2.94-2.392 5.332-5.332 5.332h-17.292c-2.94 0-5.332-2.392-5.332-5.332s2.392-5.332 5.332-5.332h17.292c2.94 0 5.332 2.392 5.332 5.332z" fill="#000000" data-original="#000000" style="" class=""/><path d="m127.139 150.811c-5.431 0-10.537 2.115-14.376 5.955l-12.228 12.228c-7.945 7.944-7.947 20.806 0 28.754 7.927 7.925 20.825 7.927 28.753-.001l12.227-12.227c3.84-3.84 5.955-8.946 5.955-14.377.001-11.235-9.092-20.332-20.331-20.332zm3.77 24.103-12.227 12.227c-2.079 2.079-5.462 2.079-7.54.001-2.087-2.088-2.082-5.46 0-7.54l12.228-12.229c2.084-2.084 5.456-2.084 7.539 0v.001c2.083 2.081 2.085 5.454 0 7.54z" fill="#000000" data-original="#000000" style="" class=""/><path d="m114.912.005c-11.237 0-20.332 9.093-20.332 20.332 0 5.43 2.115 10.536 5.955 14.377l12.228 12.228c7.929 7.928 20.826 7.926 28.753 0 0-.001 0-.001 0-.001 7.926-7.927 7.926-20.826 0-28.754l-12.227-12.226c-3.84-3.841-8.946-5.956-14.377-5.956zm15.997 36.33c-2.084 2.082-5.457 2.083-7.54-.001l-12.227-12.227c-3.323-3.324-1.007-9.103 3.77-9.103 1.424 0 2.763.555 3.77 1.563l12.227 12.226c2.079 2.079 2.079 5.463 0 7.542z" fill="#000000" data-original="#000000" style="" class=""/></g></g></svg>
